# xmcd
#
# Track frame offsets:
#	150
#	15724
#	30551
#	48275
#	65846
#	82170
#	98487
#	110608
#	131822
#	146141
#	162579
#	178127
#	195331
#	210008
#	227832
#	239165
#	258292
#	275268
#	291207
#
# Disc length: 4047 seconds
#
# Revision: 0
# Processed by: cddbd v1.5.2PL0 Copyright (c) Steve Scherf et al.
# Submitted via: EasyCDDAExtractor 5.0.5.1
#
DISCID=180fcd13
DTITLE=Various Artist - Hott Country # 28
DYEAR=1900
DGENRE=Country
TTITLE0=George Strait - I Just Want To Dance With You
TTITLE1=Mark Wills - I Do (Cherish You)
TTITLE2=Reba McEntire - Brooks and Dunn - If You See Him - If You See Her
TTITLE3=Sammy kershaw - Matches
TTITLE4=Ty Herndon - A Man Holding On
TTITLE5=Teri Clark - Now That I Found You
TTITLE6=Joe Diffie - Texas Size Heartache
TTITLE7=Shania Twain - Bryan White - From This Moment On
TTITLE8=Dixie Chicks - There's Your Trouble
TTITLE9=Colin Raye - I Can Still Feel You
TTITLE10=Martina McBride - Happy Girl
TTITLE11=Trisha Yearwood - There Goes My Baby
TTITLE12=Lorrie Morgan - I'm Not That Easy To Forget
TTITLE13=Wynonna - Always Will
TTITLE14=Wade Hayes - When The Wrong One Loves You Right
TTITLE15=Paul Brandt - Yeah !
TTITLE16=John Berry - Over My Shoulder
TTITLE17=Charlie Major - Thank The Lord For The Night Time
TTITLE18=Gil Grand - Famous First Words
EXTD=
EXTT0=
EXTT1=
EXTT2=
EXTT3=
EXTT4=
EXTT5=
EXTT6=
EXTT7=
EXTT8=
EXTT9=
EXTT10=
EXTT11=
EXTT12=
EXTT13=
EXTT14=
EXTT15=
EXTT16=
EXTT17=
EXTT18=
PLAYORDER=
